<mxfile host="65bd71144e">
    <diagram id="rLTFirSggqk5s6QhS6uG" name="Page-1">
        <mxGraphModel dx="2277" dy="1160" grid="1" gridSize="10" guides="1" tooltips="1" connect="1" arrows="1" fold="1" page="1" pageScale="1" pageWidth="827" pageHeight="1169" math="0" shadow="0">
            <root>
                <mxCell id="0"/>
                <mxCell id="1" parent="0"/>
                <mxCell id="121" value="&lt;font face=&quot;Alegreya Sans&quot;&gt;Zustandsdiagramm&lt;br&gt;&lt;/font&gt;" style="text;strokeColor=none;fillColor=none;html=1;fontSize=24;fontStyle=1;verticalAlign=middle;align=center;" parent="1" vertex="1">
                    <mxGeometry x="-790" y="30" width="220" height="70" as="geometry"/>
                </mxCell>
                <mxCell id="138" value="dispatch" style="html=1;verticalAlign=bottom;startArrow=circle;startFill=1;endArrow=open;startSize=6;endSize=8;fontFamily=Alegreya;fontSource=https%3A%2F%2Ffonts.googleapis.com%2Fcss%3Ffamily%3DAlegreya;" parent="1" edge="1">
                    <mxGeometry width="80" relative="1" as="geometry">
                        <mxPoint x="679" y="314.99999999999994" as="sourcePoint"/>
                        <mxPoint x="759" y="314.99999999999994" as="targetPoint"/>
                    </mxGeometry>
                </mxCell>
                <mxCell id="139" value="dispatch" style="text;html=1;strokeColor=none;fillColor=none;align=center;verticalAlign=middle;whiteSpace=wrap;rounded=0;fontFamily=Alegreya;" parent="1" vertex="1">
                    <mxGeometry x="684" y="220" width="60" height="30" as="geometry"/>
                </mxCell>
                <mxCell id="140" value="&lt;font data-font-src=&quot;https://fonts.googleapis.com/css?family=Alegreya&quot; face=&quot;Alegreya&quot;&gt;State&lt;/font&gt;" style="html=1;align=center;verticalAlign=top;rounded=1;absoluteArcSize=1;arcSize=10;dashed=0;" parent="1" vertex="1">
                    <mxGeometry x="60" y="288.33" width="138" height="28" as="geometry"/>
                </mxCell>
                <mxCell id="142" value="Message" style="text;html=1;strokeColor=none;fillColor=none;align=center;verticalAlign=middle;whiteSpace=wrap;rounded=0;fontFamily=Alegreya;" parent="1" vertex="1">
                    <mxGeometry x="519" y="260" width="60" height="30" as="geometry"/>
                </mxCell>
                <mxCell id="143" value="State" style="text;html=1;strokeColor=none;fillColor=none;align=center;verticalAlign=middle;whiteSpace=wrap;rounded=0;fontFamily=Alegreya;" parent="1" vertex="1">
                    <mxGeometry x="89" y="238.32999999999998" width="60" height="30" as="geometry"/>
                </mxCell>
                <mxCell id="144" value="&lt;font data-font-src=&quot;https://fonts.googleapis.com/css?family=Alegreya&quot; face=&quot;Alegreya&quot;&gt;State&lt;/font&gt;" style="html=1;align=center;verticalAlign=top;rounded=1;absoluteArcSize=1;arcSize=10;dashed=0;" parent="1" vertex="1">
                    <mxGeometry x="299" y="288.33" width="138" height="28" as="geometry"/>
                </mxCell>
                <mxCell id="148" value="Message1 label" style="html=1;verticalAlign=bottom;labelBackgroundColor=none;endArrow=open;endFill=0;sketch=0;fontFamily=Alegreya;fontSource=https%3A%2F%2Ffonts.googleapis.com%2Fcss%3Ffamily%3DAlegreya;curved=1;" parent="1" edge="1">
                    <mxGeometry width="160" relative="1" as="geometry">
                        <mxPoint x="469" y="310" as="sourcePoint"/>
                        <mxPoint x="629" y="310" as="targetPoint"/>
                    </mxGeometry>
                </mxCell>
                <mxCell id="150" value="Message1 label" style="html=1;verticalAlign=bottom;labelBackgroundColor=none;endArrow=open;endFill=0;sketch=0;fontFamily=Alegreya;fontSource=https%3A%2F%2Ffonts.googleapis.com%2Fcss%3Ffamily%3DAlegreya;curved=1;exitX=0.25;exitY=0;exitDx=0;exitDy=0;entryX=0.435;entryY=0;entryDx=0;entryDy=0;entryPerimeter=0;" parent="1" source="144" target="144" edge="1">
                    <mxGeometry x="-0.0862" y="20" width="160" relative="1" as="geometry">
                        <mxPoint x="319" y="234.32999999999998" as="sourcePoint"/>
                        <mxPoint x="479" y="234.32999999999998" as="targetPoint"/>
                        <Array as="points">
                            <mxPoint x="339" y="224.32999999999998"/>
                            <mxPoint x="359" y="234.32999999999998"/>
                        </Array>
                        <mxPoint x="-9" y="-2" as="offset"/>
                    </mxGeometry>
                </mxCell>
            </root>
        </mxGraphModel>
    </diagram>
</mxfile>
